<svg id="visual" viewBox="0 0 900 600" width="900" height="600" xmlns="http://www.w3.org/2000/svg" xmlns:xlink="http://www.w3.org/1999/xlink" version="1.1"><rect x="0" y="0" width="900" height="600" fill="#0a1516"></rect><path d="M0 361L129 393L257 366L386 311L514 373L643 319L771 331L900 297L900 601L771 601L643 601L514 601L386 601L257 601L129 601L0 601Z" fill="#9ac8d0"></path><path d="M0 417L129 397L257 358L386 360L514 424L643 364L771 382L900 357L900 601L771 601L643 601L514 601L386 601L257 601L129 601L0 601Z" fill="#85aeb4"></path><path d="M0 367L129 419L257 381L386 432L514 453L643 453L771 389L900 364L900 601L771 601L643 601L514 601L386 601L257 601L129 601L0 601Z" fill="#709498"></path><path d="M0 471L129 412L257 470L386 446L514 402L643 411L771 458L900 440L900 601L771 601L643 601L514 601L386 601L257 601L129 601L0 601Z" fill="#5d7b7e"></path><path d="M0 455L129 492L257 460L386 458L514 497L643 498L771 460L900 435L900 601L771 601L643 601L514 601L386 601L257 601L129 601L0 601Z" fill="#4a6365"></path><path d="M0 480L129 486L257 505L386 514L514 509L643 489L771 525L900 485L900 601L771 601L643 601L514 601L386 601L257 601L129 601L0 601Z" fill="#374c4d"></path><path d="M0 547L129 549L257 548L386 522L514 538L643 520L771 530L900 523L900 601L771 601L643 601L514 601L386 601L257 601L129 601L0 601Z" fill="#263636"></path><path d="M0 551L129 559L257 553L386 563L514 572L643 577L771 556L900 576L900 601L771 601L643 601L514 601L386 601L257 601L129 601L0 601Z" fill="#162121"></path></svg>